<svg
                t="1706686111886"
                class="icon"
                viewBox="0 0 1024 1024"
                version="1.1"
                xmlns="http://www.w3.org/2000/svg"
                p-id="1720"
                width="18"
                height="18"
              >
                <path
                  d="M916.48 880.64L696.32 665.6s-5.12-5.12-10.24-5.12H604.16c-15.36 0-25.6 10.24-25.6 25.6V768c0 5.12 5.12 5.12 5.12 10.24l215.04 215.04c5.12 5.12 10.24 5.12 20.48 5.12s15.36 0 20.48-5.12l71.68-71.68c10.24-15.36 10.24-30.72 5.12-40.96z m-92.16 56.32l-189.44-189.44v-35.84h35.84l189.44 189.44-35.84 35.84zM716.8 358.4c0-15.36-10.24-25.6-25.6-25.6h-409.6c-15.36 0-25.6 10.24-25.6 25.6s10.24 25.6 25.6 25.6h409.6c15.36 0 25.6-10.24 25.6-25.6zM486.4 742.4h-204.8c-15.36 0-25.6 10.24-25.6 25.6s10.24 25.6 25.6 25.6h204.8c15.36 0 25.6-10.24 25.6-25.6s-10.24-25.6-25.6-25.6z"
                  p-id="1721"
                  fill="#515151"
                ></path>
                <path
                  d="M640 972.8h-460.8c-15.36 0-25.6-10.24-25.6-25.6V153.6c0-15.36 10.24-25.6 25.6-25.6H256C256 168.96 291.84 204.8 332.8 204.8h307.2c40.96 0 76.8-35.84 76.8-76.8h76.8c15.36 0 25.6 10.24 25.6 25.6v460.8c0 15.36 10.24 25.6 25.6 25.6s25.6-10.24 25.6-25.6V153.6c0-40.96-35.84-76.8-76.8-76.8H716.8c0-40.96-35.84-76.8-76.8-76.8h-307.2C291.84 0 256 35.84 256 76.8H179.2C138.24 76.8 102.4 112.64 102.4 153.6v793.6c0 40.96 35.84 76.8 76.8 76.8h460.8c15.36 0 25.6-10.24 25.6-25.6s-10.24-25.6-25.6-25.6zM307.2 76.8c0-15.36 10.24-25.6 25.6-25.6h307.2c15.36 0 25.6 10.24 25.6 25.6v51.2c0 15.36-10.24 25.6-25.6 25.6h-307.2c-15.36 0-25.6-10.24-25.6-25.6v-51.2z"
                  p-id="1722"
                  fill="#515151"
                ></path>
                <path
                  d="M486.4 537.6h-204.8c-15.36 0-25.6 10.24-25.6 25.6s10.24 25.6 25.6 25.6h204.8c15.36 0 25.6-10.24 25.6-25.6s-10.24-25.6-25.6-25.6z"
                  p-id="1723"
                  fill="#515151"
                ></path>
              </svg>