<svg
                t="1706681414559"
                class="icon"
                viewBox="0 0 1024 1024"
                version="1.1"
                xmlns="http://www.w3.org/2000/svg"
                p-id="5132"
                width="18"
                height="18"
              >
                <path
                  d="M549.418667 64c20.928 0 41.066667 8.149333 56.213333 22.784l265.109333 256c7.978667 7.68 14.336 16.96 18.666667 27.221333 4.352 10.282667 6.592 21.333333 6.592 32.512v474.965334c0 21.888-8.576 42.88-23.850667 58.346666a80.938667 80.938667 0 0 1-57.6 24.170667H209.450667a80.917333 80.917333 0 0 1-57.6-24.170667A83.093333 83.093333 0 0 1 128 877.482667V146.517333c0-21.888 8.576-42.88 23.850667-58.346666A80.917333 80.917333 0 0 1 209.450667 64h339.968z m-19.968 70.741333h-320a11.562667 11.562667 0 0 0-8.234667 3.456 11.861333 11.861333 0 0 0-3.413333 8.32v730.965334c0 3.114667 1.237333 6.122667 3.413333 8.32a11.562667 11.562667 0 0 0 8.234667 3.456h605.098666a11.562667 11.562667 0 0 0 8.234667-3.456 11.861333 11.861333 0 0 0 3.413333-8.32v-448H610.88c-21.12 0-41.386667-8.32-56.597333-23.189334a83.029333 83.029333 0 0 1-24.810667-56.533333l-0.042667-2.816V134.741333z m256.64 224L599.253333 178.346667v168.576c0 2.88 1.045333 5.674667 2.944 7.829333a11.584 11.584 0 0 0 7.338667 3.882667l1.344 0.085333h175.168z"
                  fill="#5B5D70"
                  p-id="5133"
                ></path>
                <path
                  d="M595.605333 756.650667a36.522667 36.522667 0 0 1 2.133334 72.96l-2.133334 0.064H303.530667a36.48 36.48 0 0 1-2.133334-72.96l2.133334-0.064h292.074666z m121.706667-146.026667a36.501333 36.501333 0 0 1 2.133333 72.96l-2.133333 0.042667H303.530667a36.48 36.48 0 0 1-2.133334-72.96l2.133334-0.042667h413.781333z m-194.730667-146.048a36.501333 36.501333 0 0 1 2.133334 72.96l-2.133334 0.064H303.530667a36.501333 36.501333 0 0 1-2.133334-72.96l2.133334-0.064h219.050666z"
                  fill="#5B5D70"
                  p-id="5134"
                ></path>
              </svg>